<svg xmlns="http://www.w3.org/2000/svg" version="1.1" x="0" y="0" width="24" height="120" viewBox="0" enable-background="new 0 0 24 120" xml:space="preserve"><path fill="#BBBBBB" d="M14 5c0-0.53-0.5-1-1-1H5C4.46 4 4 4.46 4 5v14c0 0.53 0.5 1 1 1h7.59l-3-3H6V6h6v7.72l2-2V5L14 5zM9 19H8v-1h1V19L9 19zM15.95 16.53c0 0.31 0.25 0.57 0.56 0.57 0.3 0 0.55-0.26 0.55-0.57 0-0.31-0.25-0.56-0.55-0.56C16.2 15.97 15.95 16.22 15.95 16.53L15.95 16.53zM17.06 19.88c1.82-0.41 4.66-2.94 4.66-2.94s-2-3.5-4.81-3.69c-0.16-0.01-0.71-0.02-0.81-0.02C13.41 13.38 11.22 17.04 11.22 17.04s2.38 2.46 4.59 2.84C16.07 19.93 16.91 19.94 17.06 19.88L17.06 19.88zM13.81 16.56c0-1.41 1.22-2.62 2.69-2.62s2.63 1.21 2.63 2.62 -1.25 2.67-2.71 2.67C14.95 19.23 13.81 17.97 13.81 16.56L13.81 16.56z"/><path fill="#91CC41" d="M14 29c0-0.53-0.5-1-1-1H5c-0.54 0-1 0.46-1 1v14c0 0.53 0.5 1 1 1h7.59l-3-3H6V30h6v7.72l2-2V29L14 29zM9 43H8v-1h1V43L9 43zM15.95 40.53c0 0.31 0.25 0.57 0.56 0.57 0.3 0 0.55-0.26 0.55-0.57 0-0.31-0.25-0.56-0.55-0.56C16.2 39.97 15.95 40.22 15.95 40.53L15.95 40.53zM17.06 43.88c1.82-0.41 4.66-2.94 4.66-2.94s-2-3.5-4.81-3.69c-0.16-0.01-0.71-0.02-0.81-0.02 -2.69 0.15-4.88 3.81-4.88 3.81s2.38 2.46 4.59 2.84C16.07 43.93 16.91 43.94 17.06 43.88L17.06 43.88zM13.81 40.56c0-1.41 1.22-2.62 2.69-2.62s2.63 1.21 2.63 2.62 -1.25 2.67-2.71 2.67C14.95 43.23 13.81 41.97 13.81 40.56L13.81 40.56z"/><path fill="#78B2F2" d="M14 53c0-0.53-0.5-1-1-1H5c-0.54 0-1 0.46-1 1v14c0 0.53 0.5 1 1 1h7.59l-3-3H6V54h6v7.72l2-2V53L14 53zM9 67H8v-1h1V67L9 67zM15.95 64.53c0 0.31 0.25 0.57 0.56 0.57 0.3 0 0.55-0.26 0.55-0.57 0-0.31-0.25-0.56-0.55-0.56C16.2 63.97 15.95 64.22 15.95 64.53L15.95 64.53zM17.06 67.88c1.82-0.41 4.66-2.94 4.66-2.94s-2-3.5-4.81-3.69c-0.16-0.01-0.71-0.02-0.81-0.02 -2.69 0.15-4.88 3.81-4.88 3.81s2.38 2.46 4.59 2.84C16.07 67.93 16.91 67.94 17.06 67.88L17.06 67.88zM13.81 64.56c0-1.41 1.22-2.62 2.69-2.62s2.63 1.21 2.63 2.62c0 1.41-1.25 2.67-2.71 2.67C14.95 67.23 13.81 65.97 13.81 64.56L13.81 64.56z"/><path fill="#E3B551" d="M14 77c0-0.53-0.5-1-1-1H5c-0.54 0-1 0.46-1 1v14c0 0.53 0.5 1 1 1h7.59l-3-3H6V78h6v7.72l2-2V77L14 77zM9 91H8v-1h1V91L9 91zM15.95 88.53c0 0.31 0.25 0.57 0.56 0.57 0.3 0 0.55-0.26 0.55-0.57 0-0.31-0.25-0.56-0.55-0.56C16.2 87.97 15.95 88.22 15.95 88.53L15.95 88.53zM17.06 91.88c1.82-0.41 4.66-2.94 4.66-2.94s-2-3.5-4.81-3.69c-0.16-0.01-0.71-0.02-0.81-0.02 -2.69 0.15-4.88 3.81-4.88 3.81s2.38 2.46 4.59 2.84C16.07 91.93 16.91 91.94 17.06 91.88L17.06 91.88zM13.81 88.56c0-1.41 1.22-2.62 2.69-2.62s2.63 1.21 2.63 2.62c0 1.41-1.25 2.67-2.71 2.67C14.95 91.23 13.81 89.97 13.81 88.56L13.81 88.56z"/><path fill="#F74687" d="M14 101c0-0.53-0.5-1-1-1H5c-0.54 0-1 0.46-1 1v14c0 0.53 0.5 1 1 1h7.59l-3-3H6v-11h6v7.72l2-2V101L14 101zM9 115H8v-1h1V115L9 115zM15.95 112.53c0 0.31 0.25 0.57 0.56 0.57 0.3 0 0.55-0.26 0.55-0.57 0-0.31-0.25-0.56-0.55-0.56C16.2 111.97 15.95 112.22 15.95 112.53L15.95 112.53zM17.06 115.88c1.82-0.41 4.66-2.94 4.66-2.94s-2-3.5-4.81-3.69c-0.16-0.01-0.71-0.02-0.81-0.02 -2.69 0.15-4.88 3.81-4.88 3.81s2.38 2.46 4.59 2.84C16.07 115.93 16.91 115.94 17.06 115.88L17.06 115.88zM13.81 112.56c0-1.41 1.22-2.62 2.69-2.62s2.63 1.21 2.63 2.62c0 1.41-1.25 2.67-2.71 2.67C14.95 115.23 13.81 113.97 13.81 112.56L13.81 112.56z"/></svg>