<?xml version="1.0" encoding="utf-8"?>
<!-- Generator: Adobe Illustrator 16.2.1, SVG Export Plug-In . SVG Version: 6.00 Build 0)  -->
<!DOCTYPE svg PUBLIC "-//W3C//DTD SVG 1.1//EN" "http://www.w3.org/Graphics/SVG/1.1/DTD/svg11.dtd">
<svg version="1.1" id="Layer_1" xmlns="http://www.w3.org/2000/svg" xmlns:xlink="http://www.w3.org/1999/xlink" x="0px" y="0px"
	 width="120px" height="40px" viewBox="0 0 120 40" enable-background="new 0 0 120 40" xml:space="preserve">
<path fill-rule="evenodd" clip-rule="evenodd" fill="#FFFFFF" d="M11,3c0-0.529-0.5-1-1-1H2C1.46,2,1,2.46,1,3v14c0,0.529,0.5,1,1,1
	h7.59l-3-3H3V4h6v7.721l2-2V3z M6,17H5v-1h1V17z M12.95,14.529c0,0.311,0.25,0.57,0.56,0.57c0.301,0,0.551-0.26,0.551-0.57
	c0-0.309-0.25-0.559-0.551-0.559C13.2,13.971,12.95,14.221,12.95,14.529z M14.061,17.88c1.819-0.409,4.66-2.94,4.66-2.94
	s-2-3.5-4.811-3.689c-0.16-0.01-0.71-0.02-0.811-0.02C10.41,11.38,8.22,15.04,8.22,15.04s2.379,2.46,4.59,2.84
	C13.07,17.93,13.91,17.939,14.061,17.88z M10.811,14.561c0-1.41,1.219-2.621,2.689-2.621s2.63,1.211,2.63,2.621
	s-1.25,2.67-2.71,2.67C11.95,17.23,10.811,15.971,10.811,14.561z"/>
<path fill-rule="evenodd" clip-rule="evenodd" fill="#91CC41" d="M31,3c0-0.529-0.5-1-1-1h-8c-0.54,0-1,0.46-1,1v14
	c0,0.529,0.5,1,1,1h7.59l-3-3H23V4h6v7.721l2-2V3z M26,17h-1v-1h1V17z M32.95,14.529c0,0.311,0.25,0.57,0.56,0.57
	c0.301,0,0.551-0.26,0.551-0.57c0-0.309-0.25-0.559-0.551-0.559C33.2,13.971,32.95,14.221,32.95,14.529z M34.061,17.88
	c1.819-0.409,4.66-2.94,4.66-2.94s-2-3.5-4.811-3.689c-0.16-0.01-0.71-0.02-0.811-0.02c-2.689,0.149-4.879,3.81-4.879,3.81
	s2.379,2.46,4.59,2.84C33.07,17.93,33.91,17.939,34.061,17.88z M30.811,14.561c0-1.41,1.219-2.621,2.689-2.621
	s2.63,1.211,2.63,2.621s-1.25,2.67-2.71,2.67C31.95,17.23,30.811,15.971,30.811,14.561z"/>
<path fill-rule="evenodd" clip-rule="evenodd" fill="#78B2F2" d="M51,3c0-0.529-0.5-1-1-1h-8c-0.54,0-1,0.46-1,1v14
	c0,0.529,0.5,1,1,1h7.59l-3-3H43V4h6v7.721l2-2V3z M46,17h-1v-1h1V17z M52.95,14.529c0,0.311,0.25,0.57,0.56,0.57
	c0.301,0,0.551-0.26,0.551-0.57c0-0.309-0.25-0.559-0.551-0.559C53.2,13.971,52.95,14.221,52.95,14.529z M54.061,17.88
	c1.819-0.409,4.66-2.94,4.66-2.94s-2-3.5-4.811-3.689c-0.16-0.01-0.71-0.02-0.811-0.02c-2.689,0.149-4.879,3.81-4.879,3.81
	s2.379,2.46,4.59,2.84C53.07,17.93,53.91,17.939,54.061,17.88z M50.811,14.561c0-1.41,1.219-2.621,2.689-2.621
	s2.63,1.211,2.63,2.621s-1.25,2.67-2.71,2.67C51.95,17.23,50.811,15.971,50.811,14.561z"/>
<path fill-rule="evenodd" clip-rule="evenodd" fill="#E3B551" d="M71,3c0-0.529-0.5-1-1-1h-8c-0.54,0-1,0.46-1,1v14
	c0,0.529,0.5,1,1,1h7.59l-3-3H63V4h6v7.721l2-2V3z M66,17h-1v-1h1V17z M72.95,14.529c0,0.311,0.25,0.57,0.56,0.57
	c0.301,0,0.551-0.26,0.551-0.57c0-0.309-0.25-0.559-0.551-0.559C73.2,13.971,72.95,14.221,72.95,14.529z M74.061,17.88
	c1.819-0.409,4.66-2.94,4.66-2.94s-2-3.5-4.811-3.689c-0.16-0.01-0.71-0.02-0.811-0.02c-2.689,0.149-4.879,3.81-4.879,3.81
	s2.379,2.46,4.59,2.84C73.07,17.93,73.91,17.939,74.061,17.88z M70.811,14.561c0-1.41,1.219-2.621,2.689-2.621
	s2.63,1.211,2.63,2.621s-1.25,2.67-2.71,2.67C71.95,17.23,70.811,15.971,70.811,14.561z"/>
<path fill-rule="evenodd" clip-rule="evenodd" fill="#F74687" d="M91,3c0-0.529-0.5-1-1-1h-8c-0.54,0-1,0.46-1,1v14
	c0,0.529,0.5,1,1,1h7.59l-3-3H83V4h6v7.721l2-2V3z M86,17h-1v-1h1V17z M92.95,14.529c0,0.311,0.25,0.57,0.56,0.57
	c0.301,0,0.551-0.26,0.551-0.57c0-0.309-0.25-0.559-0.551-0.559C93.2,13.971,92.95,14.221,92.95,14.529z M94.061,17.88
	c1.819-0.409,4.66-2.94,4.66-2.94s-2-3.5-4.811-3.689c-0.16-0.01-0.71-0.02-0.811-0.02c-2.689,0.149-4.879,3.81-4.879,3.81
	s2.379,2.46,4.59,2.84C93.07,17.93,93.91,17.939,94.061,17.88z M90.811,14.561c0-1.41,1.219-2.621,2.689-2.621
	s2.63,1.211,2.63,2.621s-1.25,2.67-2.71,2.67C91.95,17.23,90.811,15.971,90.811,14.561z"/>
<g>
</g>
<g>
</g>
<g>
</g>
<g>
</g>
<g>
</g>
<g>
</g>
<g>
</g>
<g>
</g>
<g>
</g>
<g>
</g>
<g>
</g>
<g>
</g>
<g>
</g>
<g>
</g>
<g>
</g>
</svg>
